<mxfile host="app.diagrams.net" agent="Mozilla/5.0 (Windows NT 10.0; Win64; x64) AppleWebKit/537.36 (KHTML, like Gecko) Chrome/141.0.0.0 Safari/537.36" version="28.2.7">
  <diagram name="PÃ¡gina-1" id="wzeQnUTusqSX5KSIkgN-">
    <mxGraphModel dx="1426" dy="743" grid="1" gridSize="10" guides="1" tooltips="1" connect="1" arrows="1" fold="1" page="1" pageScale="1" pageWidth="827" pageHeight="1169" math="0" shadow="0">
      <root>
        <mxCell id="0" />
        <mxCell id="1" parent="0" />
        <mxCell id="HKqoOkvNaeZ-_SCj-655-5" style="edgeStyle=orthogonalEdgeStyle;rounded=0;orthogonalLoop=1;jettySize=auto;html=1;exitX=0.5;exitY=1;exitDx=0;exitDy=0;entryX=0.5;entryY=0;entryDx=0;entryDy=0;" edge="1" parent="1" source="HKqoOkvNaeZ-_SCj-655-1" target="HKqoOkvNaeZ-_SCj-655-2">
          <mxGeometry relative="1" as="geometry" />
        </mxCell>
        <mxCell id="HKqoOkvNaeZ-_SCj-655-29" value="True" style="edgeLabel;html=1;align=center;verticalAlign=middle;resizable=0;points=[];" vertex="1" connectable="0" parent="HKqoOkvNaeZ-_SCj-655-5">
          <mxGeometry x="0.65" y="-1" relative="1" as="geometry">
            <mxPoint as="offset" />
          </mxGeometry>
        </mxCell>
        <mxCell id="HKqoOkvNaeZ-_SCj-655-1" value="pedir primer num" style="rounded=0;whiteSpace=wrap;html=1;" vertex="1" parent="1">
          <mxGeometry x="340" y="10" width="120" height="30" as="geometry" />
        </mxCell>
        <mxCell id="HKqoOkvNaeZ-_SCj-655-10" style="edgeStyle=orthogonalEdgeStyle;rounded=0;orthogonalLoop=1;jettySize=auto;html=1;exitX=0.5;exitY=1;exitDx=0;exitDy=0;entryX=0.5;entryY=0;entryDx=0;entryDy=0;" edge="1" parent="1" source="HKqoOkvNaeZ-_SCj-655-2" target="HKqoOkvNaeZ-_SCj-655-11">
          <mxGeometry relative="1" as="geometry">
            <mxPoint x="400" y="360" as="targetPoint" />
            <Array as="points">
              <mxPoint x="400" y="390" />
              <mxPoint x="400" y="390" />
            </Array>
          </mxGeometry>
        </mxCell>
        <mxCell id="HKqoOkvNaeZ-_SCj-655-2" value="Pedir cantidad de numeros de conjunto &quot;n&quot;" style="rounded=0;whiteSpace=wrap;html=1;" vertex="1" parent="1">
          <mxGeometry x="340" y="220" width="120" height="60" as="geometry" />
        </mxCell>
        <mxCell id="HKqoOkvNaeZ-_SCj-655-13" value="" style="edgeStyle=orthogonalEdgeStyle;rounded=0;orthogonalLoop=1;jettySize=auto;html=1;" edge="1" parent="1" source="HKqoOkvNaeZ-_SCj-655-11">
          <mxGeometry relative="1" as="geometry">
            <mxPoint x="400" y="440" as="targetPoint" />
          </mxGeometry>
        </mxCell>
        <mxCell id="HKqoOkvNaeZ-_SCj-655-11" value="pedir conjunto de numeros n" style="whiteSpace=wrap;html=1;" vertex="1" parent="1">
          <mxGeometry x="340" y="320" width="120" height="60" as="geometry" />
        </mxCell>
        <mxCell id="HKqoOkvNaeZ-_SCj-655-15" value="" style="edgeStyle=orthogonalEdgeStyle;rounded=0;orthogonalLoop=1;jettySize=auto;html=1;" edge="1" parent="1">
          <mxGeometry relative="1" as="geometry">
            <mxPoint x="400" y="500" as="sourcePoint" />
            <mxPoint x="400" y="585" as="targetPoint" />
          </mxGeometry>
        </mxCell>
        <mxCell id="HKqoOkvNaeZ-_SCj-655-21" value="True" style="edgeLabel;html=1;align=center;verticalAlign=middle;resizable=0;points=[];" vertex="1" connectable="0" parent="HKqoOkvNaeZ-_SCj-655-15">
          <mxGeometry x="0.2" y="3" relative="1" as="geometry">
            <mxPoint as="offset" />
          </mxGeometry>
        </mxCell>
        <mxCell id="HKqoOkvNaeZ-_SCj-655-14" value="Imprimir los numeros" style="whiteSpace=wrap;html=1;" vertex="1" parent="1">
          <mxGeometry x="340" y="585" width="120" height="60" as="geometry" />
        </mxCell>
        <mxCell id="HKqoOkvNaeZ-_SCj-655-19" value="Imprimir los negativos" style="whiteSpace=wrap;html=1;" vertex="1" parent="1">
          <mxGeometry x="500" y="585" width="130" height="60" as="geometry" />
        </mxCell>
        <mxCell id="HKqoOkvNaeZ-_SCj-655-25" value="" style="edgeStyle=orthogonalEdgeStyle;rounded=0;orthogonalLoop=1;jettySize=auto;html=1;exitX=0.5;exitY=1;exitDx=0;exitDy=0;entryX=0.5;entryY=0;entryDx=0;entryDy=0;" edge="1" parent="1" source="HKqoOkvNaeZ-_SCj-655-1" target="HKqoOkvNaeZ-_SCj-655-24">
          <mxGeometry relative="1" as="geometry">
            <mxPoint x="400" y="60" as="sourcePoint" />
            <mxPoint x="555" y="180" as="targetPoint" />
          </mxGeometry>
        </mxCell>
        <mxCell id="HKqoOkvNaeZ-_SCj-655-28" style="edgeStyle=orthogonalEdgeStyle;rounded=0;orthogonalLoop=1;jettySize=auto;html=1;exitX=1;exitY=0.5;exitDx=0;exitDy=0;entryX=1;entryY=0.5;entryDx=0;entryDy=0;" edge="1" parent="1" source="HKqoOkvNaeZ-_SCj-655-24" target="HKqoOkvNaeZ-_SCj-655-1">
          <mxGeometry relative="1" as="geometry">
            <mxPoint x="570" y="20" as="targetPoint" />
            <Array as="points">
              <mxPoint x="580" y="110" />
              <mxPoint x="580" y="25" />
            </Array>
          </mxGeometry>
        </mxCell>
        <mxCell id="HKqoOkvNaeZ-_SCj-655-30" value="&lt;div&gt;False&lt;/div&gt;" style="edgeLabel;html=1;align=center;verticalAlign=middle;resizable=0;points=[];" vertex="1" connectable="0" parent="HKqoOkvNaeZ-_SCj-655-28">
          <mxGeometry x="-0.4244" y="4" relative="1" as="geometry">
            <mxPoint as="offset" />
          </mxGeometry>
        </mxCell>
        <mxCell id="HKqoOkvNaeZ-_SCj-655-24" value="if num &amp;gt; 30" style="rhombus;whiteSpace=wrap;html=1;" vertex="1" parent="1">
          <mxGeometry x="315" y="70" width="170" height="80" as="geometry" />
        </mxCell>
        <mxCell id="HKqoOkvNaeZ-_SCj-655-26" style="edgeStyle=orthogonalEdgeStyle;rounded=0;orthogonalLoop=1;jettySize=auto;html=1;exitX=0.5;exitY=1;exitDx=0;exitDy=0;" edge="1" parent="1" source="HKqoOkvNaeZ-_SCj-655-24" target="HKqoOkvNaeZ-_SCj-655-24">
          <mxGeometry relative="1" as="geometry" />
        </mxCell>
        <mxCell id="HKqoOkvNaeZ-_SCj-655-34" style="edgeStyle=orthogonalEdgeStyle;rounded=0;orthogonalLoop=1;jettySize=auto;html=1;exitX=1;exitY=0.5;exitDx=0;exitDy=0;" edge="1" parent="1" source="HKqoOkvNaeZ-_SCj-655-33" target="HKqoOkvNaeZ-_SCj-655-19">
          <mxGeometry relative="1" as="geometry" />
        </mxCell>
        <mxCell id="HKqoOkvNaeZ-_SCj-655-35" value="False" style="edgeLabel;html=1;align=center;verticalAlign=middle;resizable=0;points=[];" vertex="1" connectable="0" parent="HKqoOkvNaeZ-_SCj-655-34">
          <mxGeometry x="0.1875" relative="1" as="geometry">
            <mxPoint as="offset" />
          </mxGeometry>
        </mxCell>
        <mxCell id="HKqoOkvNaeZ-_SCj-655-33" value="si conjunto[n-1] =&amp;gt; 10" style="rhombus;whiteSpace=wrap;html=1;" vertex="1" parent="1">
          <mxGeometry x="300" y="440" width="200" height="80" as="geometry" />
        </mxCell>
      </root>
    </mxGraphModel>
  </diagram>
</mxfile>
